<?xml version="1.0" encoding="utf-8"?>
<!-- Generator: Adobe Illustrator 24.1.0, SVG Export Plug-In . SVG Version: 6.00 Build 0)  -->
<svg version="1.1" id="Capa_1" xmlns="http://www.w3.org/2000/svg" xmlns:xlink="http://www.w3.org/1999/xlink" x="0px" y="0px"
	 viewBox="0 0 512 512" style="enable-background:new 0 0 512 512;" xml:space="preserve">
<style type="text/css">
	.st0{fill:#FFFFFF;}
</style>
<g>
	<g>
		<g>
			<path class="st0" d="M512,115.1c0-1-0.2-2-0.6-2.9c-0.1-0.3-0.2-0.5-0.3-0.7c-0.4-0.8-0.8-1.5-1.4-2.1c-0.1-0.1-0.2-0.2-0.3-0.3
				c-0.6-0.6-1.3-1.1-2-1.5L328.2,13.8c-2.5-1.3-5.4-1.3-7.9,0L4.6,175.9c-0.7,0.4-1.4,0.9-2,1.5c-0.1,0.1-0.2,0.3-0.3,0.4
				c-0.6,0.6-1,1.3-1.4,2c-0.1,0.2-0.2,0.5-0.3,0.7c-0.4,0.9-0.6,1.9-0.6,2.9l0,0l0,0v213.3c0,3.2,1.8,6.1,4.6,7.6l179.2,93.9
				c0.4,0.2,0.7,0.3,1.1,0.4c0.2,0.1,0.4,0.2,0.7,0.3c0.7,0.2,1.4,0.3,2.2,0.3l0,0l0,0l0,0c1.2,0,2.4-0.3,3.6-0.9
				c0.1,0,0.2,0,0.3-0.1l315.7-162.1c2.8-1.5,4.6-4.4,4.6-7.6L512,115.1L512,115.1z M179.2,476.6L17.1,391.6V197.6l162.1,84.9V476.6
				z M187.8,267.7L27.1,183.5L324.2,30.9l160.7,84.2L187.8,267.7z M494.9,323.3L196.3,476.7V282.5l298.7-153.4L494.9,323.3
				L494.9,323.3z"/>
			<path class="st0" d="M297.1,183.7c-0.1-0.3-0.1-0.5-0.2-0.8c-0.1-0.2-0.3-0.4-0.5-0.6c-0.6-1-1.4-1.8-2.4-2.5
				c-0.2-0.1-0.4-0.4-0.6-0.5l-101.6-56.9c-0.3-0.1-0.5-0.2-0.8-0.2c-1-0.4-2.1-0.7-3.2-0.7c-0.6,0-1.1,0-1.6,0.1
				c-0.6,0.1-1.1,0.2-1.6,0.5c-0.3,0.1-0.6,0.1-0.8,0.2l-105,53.9c-2.8,1.5-4.6,4.4-4.6,7.6s1.8,6.1,4.6,7.6l105.2,55
				c2.5,1.3,5.4,1.3,7.9,0l0,0l101.4-52.1c0,0,0.1-0.1,0.1-0.1c0.9-0.5,1.7-1.1,2.3-1.8c0.2-0.2,0.3-0.4,0.5-0.6
				c0.2-0.3,0.5-0.6,0.7-0.9c0.1-0.3,0.2-0.5,0.3-0.8c0.2-0.5,0.4-1.1,0.5-1.7c0.2-1,0.3-2.1,0.1-3.2
				C297.5,184.8,297.3,184.2,297.1,183.7z M179.2,224.7l-78-40.8l78-40.1V224.7z M196.3,225v-80.5l75,42L196.3,225z"/>
			<path class="st0" d="M435,112.9c-0.1-0.6-0.3-1.1-0.5-1.7c-0.1-0.3-0.1-0.5-0.2-0.8c-0.1-0.2-0.3-0.4-0.5-0.6
				c-0.6-1-1.4-1.8-2.4-2.5c-0.2-0.1-0.3-0.4-0.6-0.5L329.2,50c-0.3-0.1-0.5-0.2-0.8-0.2c-2.1-0.9-4.4-1-6.5-0.1
				c-0.3,0.1-0.5,0.1-0.8,0.2l-105,53.9c-2.8,1.5-4.6,4.4-4.6,7.6c0,3.2,1.8,6.1,4.6,7.6l0,0l105.2,55c2.5,1.3,5.4,1.3,7.9,0
				l101.4-52.1c0,0,0.1-0.1,0.1-0.1c0.9-0.5,1.6-1.1,2.3-1.8c0.2-0.2,0.3-0.4,0.5-0.6c0.2-0.3,0.5-0.6,0.6-0.9
				c0.1-0.3,0.2-0.5,0.2-0.8c0.2-0.5,0.4-1.1,0.5-1.7C435.1,115,435.1,114,435,112.9z M316.6,152.2l-78-40.8l78-40.1V152.2z
				 M333.7,152.5V72l75,42L333.7,152.5z"/>
		</g>
	</g>
</g>
</svg>
