<?xml version="1.0" encoding="utf-8"?>
<!-- Generator: Adobe Illustrator 24.1.0, SVG Export Plug-In . SVG Version: 6.00 Build 0)  -->
<svg version="1.1" id="Capa_1" xmlns="http://www.w3.org/2000/svg" xmlns:xlink="http://www.w3.org/1999/xlink" x="0px" y="0px"
	 viewBox="0 0 512 512" style="enable-background:new 0 0 512 512;" xml:space="preserve">
<style type="text/css">
	.st0{fill:#FFFFFF;}
</style>
<g>
	<g>
		<path class="st0" d="M291,266.3c-9.8-9.5-22.7-14.5-36.3-14.1c-26,0.7-47.3,21.6-48.5,47.6c-0.7,15.5,5.9,30.6,17.7,40.6v35.2
			c0,17.8,14.5,32.2,32.2,32.2s32.2-14.5,32.2-32.2v-35.2c11.3-9.5,17.8-23.4,17.8-38.2C306.1,288.5,300.7,275.8,291,266.3z
			 M275,325.5c-4.2,3.4-6.6,8.5-6.6,13.9v36.2c0,6.7-5.5,12.2-12.2,12.2s-12.2-5.5-12.2-12.2v-36.2c0-5.4-2.4-10.5-6.6-13.9l0,0
			c-7.5-6.1-11.6-15.1-11.1-24.8c0.7-15.6,13.5-28.1,29.1-28.5c0.3,0,0.6,0,0.9,0c7.9,0,15.3,3,20.9,8.5c5.9,5.7,9.1,13.3,9.1,21.5
			C286.1,311.3,282,319.8,275,325.5z"/>
	</g>
</g>
<g>
	<g>
		<path class="st0" d="M386.1,202.8V130c0-71.7-58.3-130-130-130s-130,58.3-130,130v72.6c-24.4,24.9-41.3,56.5-48.3,90.7
			c-1.1,5.4,2.4,10.7,7.8,11.8c5.4,1.1,10.7-2.4,11.8-7.8C112.8,222.4,179.5,168,256.1,168c89.3,0,162,72.7,162,162
			s-72.7,162-162,162c-76.6,0-143.4-54.4-158.7-129.3c-1.1-5.4-6.4-8.9-11.8-7.8s-8.9,6.4-7.8,11.8c8.3,40.5,30.5,77.3,62.5,103.8
			c32.5,26.8,73.6,41.6,115.8,41.6c100.4,0,182-81.6,182-182C438.1,280.5,418.3,235.6,386.1,202.8z M318.1,158.9
			c-19.4-7-40.2-10.9-62-10.9c-21.3,0-42.2,3.8-62,10.9V130c0-34.2,27.8-62,62-62s62,27.8,62,62V158.9z M366.1,185.1
			c-8.8-6.7-18.1-12.5-28-17.6V130c0-45.2-36.8-82-82-82s-82,36.8-82,82v37.5c-9.8,4.9-19.2,10.8-28,17.5v-55
			c0-60.7,49.3-110,110-110s110,49.3,110,110V185.1z"/>
	</g>
</g>
<g>
	<g>
		<path class="st0" d="M391.2,322.9c-1.9-1.9-4.4-2.9-7.1-2.9s-5.2,1.1-7.1,2.9c-1.9,1.9-2.9,4.4-2.9,7.1s1.1,5.2,2.9,7.1
			c1.9,1.9,4.4,2.9,7.1,2.9s5.2-1.1,7.1-2.9c1.9-1.9,2.9-4.4,2.9-7.1S393,324.8,391.2,322.9z"/>
	</g>
</g>
<g>
	<g>
		<path class="st0" d="M390.4,298.2c-7-29.7-24.1-56.7-48.1-75.9c-24.4-19.5-55-30.3-86.2-30.3c-5.5,0-10,4.5-10,10s4.5,10,10,10
			c55,0,102.2,37.3,114.8,90.8c1.1,4.6,5.2,7.7,9.7,7.7c0.8,0,1.5-0.1,2.3-0.3C388.4,309,391.7,303.6,390.4,298.2z"/>
	</g>
</g>
<g>
	<g>
		<path class="st0" d="M84.4,320h-0.5c-5.5,0-10,4.5-10,10s4.5,10,10,10h0.5c5.5,0,10-4.5,10-10S89.9,320,84.4,320z"/>
	</g>
</g>
</svg>
