<?xml version="1.0" encoding="utf-8"?>
<!-- Generator: Adobe Illustrator 24.1.0, SVG Export Plug-In . SVG Version: 6.00 Build 0)  -->
<svg version="1.1" id="Livello_1" xmlns="http://www.w3.org/2000/svg" xmlns:xlink="http://www.w3.org/1999/xlink" x="0px" y="0px"
	 viewBox="0 0 512 137.7" style="enable-background:new 0 0 512 137.7;" xml:space="preserve">
<style type="text/css">
	.st0{enable-background:new    ;}
	.st1{fill:#EEEEEC;}
	.st2{fill:#888A85;}
	.st3{fill:#BABDB6;}
</style>
<g>
	<g class="st0">
		<path class="st1" d="M168.3,57.5c-1.6-11.6,6.3-18.6,20.5-18.6c7.3,0,12.8,2.8,14.7,4.5l1.2,10.8c-2.9-3.2-9.3-6-15.6-6
			c-6,0-11.4,1.7-10.7,7.3l1.9,15.3C174.2,68.4,169.2,64.4,168.3,57.5z M172.8,94.6l-1.5-12.5c2,3,8.6,7.3,16.3,8.5l0.8,9.4
			C179.5,99.2,174.5,96,172.8,94.6z M202.9,82.5c-0.5-3-2.3-5.1-5.3-6.6l-1-10.6c8.7,2.5,15,6,16.3,15.6c1.2,8.5-2.1,14.2-8.1,17
			L202.9,82.5z"/>
		<path class="st1" d="M219.7,70.2c-2.6-19.2,9.9-31.3,26.2-31.3c2.7,0,5.4,0.3,7.7,0.9l0.8,9.6c-2.4-0.8-5.2-1.3-8.3-1.3
			c-10,0-18.1,7.2-16.2,21c1.9,13.6,13.4,22,23.4,22c2.6,0,5.1-0.4,7.3-1.1l0.8,9.2c-2.1,0.6-4.6,1-7.8,1
			C238.2,100.2,222.4,89.5,219.7,70.2z"/>
		<path class="st1" d="M273,98.3l-4.4-33.5c1,0.2,7.3,1,13.7,1c8.4,0,12.7-2.1,11.9-8.2c-1-7.1-7.2-9.7-15.4-9.7
			c-4.6,0-11.4,0.9-13,1.1l-0.8-9.1c1.2-0.2,7.7-1,13.3-1c13.8,0,23.5,4.8,25.3,17.7c1.6,11.9-7.8,18-19.9,18
			c-1.5,0-3.1-0.2-4.5-0.3l3.6,23.5c0.1,0.7,0.5,1.2,0.6,1.3l-10.4,0.2C273.3,99.1,273.1,99,273,98.3z M295.5,87l8.8-2.6l9.3,13.3
			c0.4,0.5,0.8,1.2,1,1.3l-11,0.1L295.5,87z"/>
		<path class="st1" d="M311.5,41.2c-0.3-0.5-0.9-1-1.3-1.2l12.4-0.2l17.6,25h-11.4L311.5,41.2z M339.9,98.3l-2.2-16.1h10l2.2,15.5
			c0.1,0.7,0.5,1.2,0.6,1.3L340,99.2C340.2,99.1,340,99,339.9,98.3z M350.6,39.9l12.2-0.2c-0.3,0.2-0.6,0.5-1,1l-10.6,24.2h-11
			L350.6,39.9z"/>
		<path class="st1" d="M378.8,98.3l-3.2-24.5c1.9,0.2,5.1,0.5,9.5,0.5c11.1,0,18-2.7,16.6-12.7c-1.2-9.1-9.7-13.2-16.9-13.2
			c-4.7,0-10.2,0.4-13.1,0.8l-0.8-9.1c1.1-0.2,7.9-1.1,12.9-1.1c12.5,0,25.3,7,27.3,21.7c2.1,14.7-8.6,22.8-20.2,22.8
			c-1.2,0-3.1,0-4.6-0.1l2.2,14.4c0.1,0.7,0.5,1.2,0.6,1.3l-10.4,0.2C379.1,99.1,378.9,98.9,378.8,98.3z"/>
		<path class="st1" d="M415.4,39.5c0.1,0.2,0.5,0.4,1.2,0.4h39.6c0.5,0,0.8,0.2,0.8,0l1.2,9.8c-0.2-0.2-0.7-0.5-1.2-0.5h-39.6
			c-0.7,0-0.8-0.2-0.8,0.2L415.4,39.5z M439.1,98.3l-4.6-33.4h10l4.6,32.8c0.1,0.7,0.4,1.1,0.5,1.2l-10.3,0.3
			C439.4,99.1,439.2,99,439.1,98.3z"/>
		<path class="st1" d="M478.6,51.7l-4.2,22l-9.7-0.1l7-32.4c0.2-0.5-0.2-1-0.5-1.2l11.6-0.4c-0.1,0.2,0.2,0.5,0.6,1.1l27.8,57
			c0.3,0.6,0.7,1.1,0.8,1.2l-10.9,0.2L478.6,51.7z"/>
	</g>
	<g id="g3_2_" transform="matrix(0.11919181,0,0,0.1206487,174.25537,372.20578)">
		<g id="g7_2_">
			<g id="g9_2_">
				<polygon id="polygon11_2_" class="st2" points="-1456.9,-2198.8 -904,-2443.7 -748.5,-2126.1 -891.4,-1945 				"/>
				<polygon id="polygon13_2_" class="st3" points="-309.4,-2514.2 -487,-2151.4 -881.8,-2251.3 -1461.8,-2514.2 -1003.3,-2904 
					-713.4,-2692 				"/>
				<polygon id="polygon15_2_" class="st2" points="-1462,-2515.4 -1462,-2825.4 -1210.9,-2889.3 -1121,-2672.4 				"/>
				<polygon id="polygon17_2_" class="st1" points="-309.4,-2826.4 -882.3,-2564.8 -1456.9,-2825.4 -872.4,-3085 				"/>
				<polygon id="polygon19_2_" class="st1" points="-888.8,-2253.4 -888.8,-1943.8 -307.7,-2200.5 -307.7,-2515.4 				"/>
			</g>
		</g>
	</g>
</g>
</svg>
